<mxfile host="app.diagrams.net" modified="2024-04-20T16:36:14.080Z" agent="Mozilla/5.0 (X11; Linux x86_64) AppleWebKit/537.36 (KHTML, like Gecko) Chrome/123.0.0.0 Safari/537.36" etag="01X6gEyZXiOOkKlP2Ogj" version="24.0.7" type="github">
  <diagram name="Page-1" id="6raHrn24N7BIis8OXGXd">
    <mxGraphModel dx="1346" dy="766" grid="1" gridSize="10" guides="1" tooltips="1" connect="1" arrows="1" fold="1" page="1" pageScale="1" pageWidth="850" pageHeight="1100" math="0" shadow="0">
      <root>
        <mxCell id="0" />
        <mxCell id="1" parent="0" />
        <mxCell id="4dbaGhN37J4AhbONmbiC-1" value="" style="rounded=0;whiteSpace=wrap;html=1;fillColor=none;" vertex="1" parent="1">
          <mxGeometry x="80" y="240" width="330" height="500" as="geometry" />
        </mxCell>
        <mxCell id="4dbaGhN37J4AhbONmbiC-2" value="" style="whiteSpace=wrap;html=1;aspect=fixed;fillColor=none;" vertex="1" parent="1">
          <mxGeometry x="80" y="240" width="100" height="100" as="geometry" />
        </mxCell>
        <mxCell id="4dbaGhN37J4AhbONmbiC-3" value="" style="whiteSpace=wrap;html=1;aspect=fixed;fillColor=none;" vertex="1" parent="1">
          <mxGeometry x="80" y="340" width="100" height="100" as="geometry" />
        </mxCell>
        <mxCell id="4dbaGhN37J4AhbONmbiC-5" value="" style="whiteSpace=wrap;html=1;aspect=fixed;fillColor=none;" vertex="1" parent="1">
          <mxGeometry x="80" y="540" width="100" height="100" as="geometry" />
        </mxCell>
        <mxCell id="4dbaGhN37J4AhbONmbiC-6" value="" style="whiteSpace=wrap;html=1;aspect=fixed;fillColor=none;" vertex="1" parent="1">
          <mxGeometry x="80" y="640" width="100" height="100" as="geometry" />
        </mxCell>
        <mxCell id="4dbaGhN37J4AhbONmbiC-7" value="" style="whiteSpace=wrap;html=1;aspect=fixed;fillColor=none;" vertex="1" parent="1">
          <mxGeometry x="310" y="240" width="100" height="100" as="geometry" />
        </mxCell>
        <mxCell id="4dbaGhN37J4AhbONmbiC-8" value="" style="whiteSpace=wrap;html=1;aspect=fixed;fillColor=none;" vertex="1" parent="1">
          <mxGeometry x="310" y="340" width="100" height="100" as="geometry" />
        </mxCell>
        <mxCell id="4dbaGhN37J4AhbONmbiC-10" value="" style="whiteSpace=wrap;html=1;aspect=fixed;fillColor=none;" vertex="1" parent="1">
          <mxGeometry x="310" y="540" width="100" height="100" as="geometry" />
        </mxCell>
        <mxCell id="4dbaGhN37J4AhbONmbiC-11" value="" style="whiteSpace=wrap;html=1;aspect=fixed;fillColor=none;" vertex="1" parent="1">
          <mxGeometry x="310" y="640" width="100" height="100" as="geometry" />
        </mxCell>
      </root>
    </mxGraphModel>
  </diagram>
</mxfile>
